<svg width="159" height="38" viewBox="0 0 159 38" fill="none" xmlns="http://www.w3.org/2000/svg">
<path d="M145.9 10.0801C148.396 10.0801 150.621 10.6239 152.573 11.7119C154.525 12.7999 156.045 14.3364 157.133 16.3203C158.221 18.2722 158.765 20.528 158.765 23.0879C158.765 24.0799 158.701 24.9764 158.573 25.7764H138.365C138.525 27.8882 139.309 29.5843 140.717 30.8643C142.125 32.1441 143.853 32.7841 145.9 32.7842C148.844 32.7842 150.925 31.5519 152.141 29.0879H158.045C157.245 31.5199 155.789 33.5199 153.677 35.0879C151.597 36.6239 149.004 37.3916 145.9 37.3916C143.373 37.3915 141.101 36.8318 139.085 35.7119C137.101 34.5599 135.533 32.96 134.381 30.9121C133.261 28.8321 132.701 26.4319 132.701 23.7119C132.701 20.9919 133.245 18.6076 134.333 16.5596C135.453 14.4798 137.005 12.8797 138.989 11.7598C141.005 10.64 143.309 10.0801 145.9 10.0801ZM71.6631 10.5596C74.0951 10.5596 76.2873 11.1044 78.2393 12.1924C80.1911 13.2483 81.7109 14.784 82.7988 16.7998C83.9188 18.8158 84.4795 21.1843 84.4795 23.9043C84.4794 26.6241 83.9188 29.0078 82.7988 31.0557C81.6789 33.0716 80.1274 34.6239 78.1436 35.7119C76.1916 36.7999 73.9993 37.3437 71.5674 37.3438C69.1354 37.3438 66.9432 36.7999 64.9912 35.7119C63.0392 34.6239 61.5028 33.0717 60.3828 31.0557C59.5782 29.541 59.0728 27.8422 58.8633 25.96H53.4268C53.2111 27.8424 52.6897 29.5409 51.8613 31.0557C50.7414 33.0716 49.1899 34.6239 47.2061 35.7119C45.2541 36.7999 43.0618 37.3437 40.6299 37.3438C38.1979 37.3438 36.0057 36.7999 34.0537 35.7119C32.1017 34.6239 30.5653 33.0717 29.4453 31.0557C28.3575 29.0078 27.8135 26.624 27.8135 23.9043C27.8135 21.2163 28.3741 18.8637 29.4941 16.8477C30.6141 14.8 32.1498 13.2483 34.1016 12.1924C36.0855 11.1044 38.2936 10.5596 40.7256 10.5596C43.1576 10.5596 45.3498 11.1044 47.3018 12.1924C49.2536 13.2483 50.7734 14.784 51.8613 16.7998C52.9813 18.8158 53.542 21.1843 53.542 23.9043C53.542 23.9229 53.5411 23.9414 53.541 23.96H58.752C58.7519 23.9414 58.751 23.9229 58.751 23.9043C58.751 21.2163 59.3116 18.8637 60.4316 16.8477C61.5516 14.8 63.0873 13.2483 65.0391 12.1924C67.023 11.1044 69.2311 10.5596 71.6631 10.5596ZM23.2803 8.06348H14.4004V36.96H8.92773V8.06348H0V3.59961H23.2803V8.06348ZM104.041 10.0801C106.121 10.0801 107.977 10.5121 109.608 11.376C111.272 12.24 112.569 13.5198 113.497 15.2158C114.425 16.9118 114.889 18.9604 114.889 21.3604V36.96H109.465V22.1758C109.465 19.8079 108.872 17.9999 107.688 16.752C106.505 15.4721 104.889 14.8321 102.841 14.832C100.793 14.832 99.1603 15.472 97.9443 16.752C96.7605 17.9999 96.169 19.808 96.1689 22.1758V36.96H90.6963V10.5117H96.1689V13.5361C97.0649 12.4481 98.2012 11.6002 99.5771 10.9922C100.985 10.3843 102.473 10.0801 104.041 10.0801ZM127.341 36.96H121.868V10.5117H127.341V36.96ZM40.6777 12.4316C38.7897 12.4316 37.0295 12.8635 35.3975 13.7275C33.7975 14.5595 32.5018 15.8404 31.5098 17.5684C30.5179 19.2963 30.0215 21.4084 30.0215 23.9043C30.0215 26.4321 30.502 28.5602 31.4619 30.2881C32.4539 32.0159 33.7497 33.3118 35.3496 34.1758C36.9816 35.0078 38.7419 35.4238 40.6299 35.4238C42.5178 35.4238 44.2782 35.0078 45.9102 34.1758C47.5739 33.3118 48.9017 32.0159 49.8936 30.2881C50.8855 28.5602 51.3818 26.4321 51.3818 23.9043C51.3818 21.4084 50.8855 19.2963 49.8936 17.5684C48.9016 15.8404 47.59 14.5595 45.958 13.7275C44.326 12.8635 42.5657 12.4316 40.6777 12.4316ZM71.6152 12.4316C69.7272 12.4316 67.967 12.8635 66.335 13.7275C64.735 14.5595 63.4393 15.8404 62.4473 17.5684C61.4554 19.2963 60.959 21.4084 60.959 23.9043C60.959 26.4321 61.4395 28.5602 62.3994 30.2881C63.3914 32.0159 64.6872 33.3118 66.2871 34.1758C67.9191 35.0078 69.6794 35.4238 71.5674 35.4238C73.4553 35.4238 75.2157 35.0078 76.8477 34.1758C78.5114 33.3118 79.8392 32.0159 80.8311 30.2881C81.823 28.5602 82.3193 26.4321 82.3193 23.9043C82.3193 21.4084 81.823 19.2963 80.8311 17.5684C79.8391 15.8404 78.5275 14.5595 76.8955 13.7275C75.2635 12.8635 73.5032 12.4316 71.6152 12.4316ZM145.661 14.6875C143.773 14.6875 142.156 15.2957 140.812 16.5117C139.469 17.6957 138.669 19.3124 138.413 21.3604H153.053C153.021 19.3444 152.301 17.7277 150.893 16.5117C149.485 15.2959 147.741 14.6876 145.661 14.6875ZM124.652 0C125.612 0 126.429 0.335851 127.101 1.00781C127.773 1.6798 128.108 2.51193 128.108 3.50391C128.108 4.49591 127.773 5.328 127.101 6C126.429 6.672 125.612 7.00781 124.652 7.00781C123.66 7.00776 122.828 6.67195 122.156 6C121.484 5.32802 121.148 4.49584 121.148 3.50391C121.148 2.51197 121.484 1.67979 122.156 1.00781C122.828 0.335859 123.66 4.7643e-05 124.652 0Z" fill="#ECC039"/>
</svg>
